<svg width="190" height="188" viewBox="0 0 190 188" fill="none" xmlns="http://www.w3.org/2000/svg">
<g clip-path="url(#clip0_2_121)">
<path d="M19.63 93.14C19.63 83.89 21.31 75.02 24.37 66.84C31.33 66.17 38.63 67.25 45.52 70.26C59.81 76.5 68.63 89.7 69.77 103.37H59.89L60.81 89.6C60.02 88.23 59.14 86.9 58.16 85.63L59.63 103.37H51.79L53.33 80.47C52.1 79.39 50.79 78.38 49.39 77.46L51.54 103.37H43.7L45.59 75.26C44.98 74.95 44.36 74.66 43.72 74.38C42.8 73.98 41.88 73.62 40.95 73.29L43.45 103.37H35.61L37.65 72.3C36.12 71.91 34.58 71.62 33.04 71.43L35.37 103.38H27.52L29.91 71.17C28.12 71.09 26.34 71.15 24.6 71.33L27.26 103.38H20.33C19.87 100.04 19.64 96.62 19.64 93.15L19.63 93.14Z" fill="#0069B4"/>
<path d="M121.99 85.5C121.18 84.75 120.31 84.11 119.39 83.59C118.99 83.36 118.58 83.16 118.16 82.98L120 103.37H113.77L115.32 82.16C113.96 81.95 112.57 81.97 111.18 82.23L113.09 103.37H106.85L108.3 83.11C107.09 83.63 105.91 84.34 104.78 85.23L106.22 103.36H99.97L101.12 89.06C100.11 90.44 99.19 92.02 98.39 93.81L99.25 103.36H92.73C92.93 101.65 93.25 99.91 93.7 98.17C97.81 82.44 110.52 75.08 120.87 80.98C127.75 84.9 131.79 93.8 132.02 103.36H127.59L128.09 96.51C127.53 94.28 126.73 92.22 125.74 90.39L126.91 103.36H120.68L121.99 85.49V85.5Z" fill="#0069B4"/>
<path d="M58.53 158.99C53.18 156.03 48.23 152.44 43.77 148.32C54.42 139.79 67.18 131.81 81.72 125.05C97.83 117.56 113.7 112.69 128.31 110.22C114.9 114.62 100.97 121.74 87.92 131.2C76.42 139.53 66.44 149.07 58.52 158.99H58.53Z" fill="#C8D400"/>
<path d="M89.64 168.2C80.54 167.55 71.88 165.29 63.96 161.71C71.22 152.79 80.45 144.02 91.46 136.04C115.43 118.67 140.36 110.52 159.28 111.14C146.77 113.07 133.2 118.78 121.01 127.62C105.42 138.91 94.02 153.91 89.65 168.21L89.64 168.2Z" fill="#C8D400"/>
<path d="M166.89 116.43C157.13 146.35 129.09 168.04 95.91 168.39C99.96 156.35 109.7 143.2 124.53 132.45C139.07 121.92 154.3 116.74 166.89 116.42V116.43Z" fill="#52AE32"/>
<path d="M106.63 109.21C97.53 111.91 88.31 115.38 79.2 119.62C64.39 126.51 50.94 134.9 39.57 144.1C31.45 135.3 25.4 124.57 22.2 112.68L106.64 109.22L106.63 109.21Z" fill="#52AE32"/>
<path d="M137.68 102.99C136.97 103.06 136.26 103.14 135.55 103.22C135.53 101.39 135.4 99.58 135.16 97.81L139.06 95.1L136.75 85.64L132.63 88.28C131.71 86.04 130.57 83.95 129.24 82.06L131.79 76.18L125.58 69.61L122.84 75.78L122.24 75.4C120.54 74.37 118.78 73.62 116.98 73.17L116.79 65.47L107.89 64.84L108.19 73.15C105.92 73.7 103.7 74.68 101.59 76.05L97.61 69.05L89.38 76.57L93.81 83.75C92.15 86.14 90.71 88.86 89.56 91.87L82.77 89.3L79.77 102.32L83.12 103.36H76.23C76.05 100.36 75.56 97.4 74.79 94.5L81.61 90.93L76.35 77.9L69.01 81.3C67.02 78.14 64.63 75.15 61.86 72.42L65.99 64.37L53.25 54.42L48.68 62.97C48.28 62.77 47.87 62.57 47.45 62.37C43.95 60.71 40.33 59.46 36.66 58.61L35.21 47.34C49.01 29.43 70.7 17.87 95.1 17.87C136.11 17.87 169.49 50.49 170.55 91.13L169.13 92.26C168.64 90.53 168.02 88.92 167.27 87.48L169.08 82.85L165.51 77.98L163.6 82.8L163.25 82.53C162.26 81.79 161.23 81.28 160.17 80.98L160.37 75.14L155.14 75L154.97 81.24C153.62 81.72 152.29 82.52 151.01 83.61L149.02 78.51L144.04 84.32L146.23 89.55C145.18 91.36 144.25 93.41 143.48 95.67L139.8 93.86L137.69 102.97L137.68 102.99Z" fill="#0069B4"/>
<path d="M165.24 103.37C164.07 103.2 162.88 103.05 161.67 102.92L162.53 89.15C162.15 88.74 161.75 88.39 161.33 88.09C160.97 87.84 160.6 87.63 160.21 87.47L161.44 102.89C160.22 102.76 158.99 102.66 157.74 102.58L158.71 87.1C157.92 87.02 157.1 87.12 156.26 87.39L157.48 102.56C156.27 102.48 155.04 102.43 153.8 102.39L154.67 88.12C153.98 88.53 153.29 89.06 152.62 89.72L153.53 102.38C152.32 102.35 151.09 102.33 149.85 102.34L150.55 92.26C149.98 93.12 149.44 94.09 148.94 95.17L149.56 102.34C148.08 102.35 146.59 102.39 145.08 102.46C145.22 101.76 145.37 101.06 145.55 100.36C148.57 88.5 156.27 82.65 162.21 86.87C166.12 89.65 168.26 96.17 168.2 103.37H165.61L166.03 96.6C165.67 94.96 165.16 93.47 164.54 92.17L165.42 103.37H165.24Z" fill="#0069B4"/>
<path d="M13.07 44.58L10.9 48.95C9.83 51.1 10.12 53.01 11.81 53.85H11.84C13.19 54.53 14.33 53.93 15.26 52.94C15.21 53.88 15.48 54.99 16.76 55.63H16.79C17.42 55.96 18.05 55.99 18.68 55.8C19.5 55.51 20.27 54.79 20.83 53.66L22.91 49.48L13.08 44.59L13.07 44.58ZM17.16 54.43C16.01 53.86 15.86 52.63 16.53 51.29L17.97 48.38L21.36 50.06L19.87 53.05C19.17 54.45 18.15 54.91 17.19 54.43H17.16ZM12.47 52.77H12.44C11.34 52.21 11.14 50.96 11.88 49.47L13.52 46.17L16.99 47.9L15.45 51C14.6 52.71 13.53 53.31 12.46 52.78L12.47 52.77ZM14.58 72.06L14.27 73.48L15.65 73.78L15.96 72.36L14.58 72.06ZM15.2 69.19L14.89 70.61L16.27 70.91L16.58 69.49L15.2 69.19ZM2.94 68.75C2.36 71.43 3.59 73.58 6.71 74.26L12.86 75.6L13.12 74.39L6.88 73.03C4.54 72.52 3.61 71 4.04 69.02C4.48 66.98 6.06 66.02 8.37 66.53L14.53 67.87L14.79 66.66L8.55 65.3C5.52 64.64 3.5 66.09 2.92 68.74L2.94 68.75ZM0 89.69L0.02 90.94L4.38 90.88L11.05 95.36L11.03 93.92L5.5 90.26L10.94 86.49L10.92 84.98L4.35 89.63L0.01 89.68L0 89.69ZM13.58 109.88L13.93 111.29L15.3 110.96L14.95 109.54L13.58 109.87V109.88ZM12.89 107.03L13.23 108.44L14.6 108.11L14.25 106.69L12.88 107.02L12.89 107.03ZM1.67 112.01C2.32 114.68 4.37 116.07 7.48 115.31L13.59 113.82L13.3 112.62L7.1 114.13C4.77 114.7 3.28 113.74 2.8 111.77C2.31 109.74 3.3 108.19 5.6 107.63L11.72 106.13L11.43 104.93L5.23 106.44C2.21 107.18 1.04 109.37 1.68 112L1.67 112.01ZM6.73 128.93L7.28 130.04L9.92 128.73L13.08 129.77L10.2 135.91L10.89 137.3L14.24 130.16L20.63 132.24L19.92 130.81L11.24 128.08L17.11 125.16L16.56 124.05L6.73 128.93ZM16.89 151.44L19.33 150.82C20.69 152.28 22.48 152.63 23.86 151.52L23.88 151.5C25.19 150.45 25.18 149.01 24.06 146.77C22.95 144.56 23.05 143.76 23.85 143.11L23.87 143.09C24.64 142.47 25.82 142.69 26.72 143.8C27.43 144.68 27.79 145.7 27.78 147.02L28.98 146.98C28.98 145.55 28.61 144.38 27.61 143.13C26.3 141.51 24.36 141.12 23.02 142.2L23 142.22C21.59 143.35 21.69 144.77 22.84 147.08C23.91 149.18 23.8 149.97 23.01 150.61L22.99 150.63C22.15 151.31 20.93 151.04 20 149.89C19.05 148.71 18.76 147.53 18.85 145.98L17.66 145.95C17.57 147.49 17.91 148.81 18.72 150.01L16.58 150.18L16.9 151.43L16.89 151.44ZM29.97 162.72L36.21 167.75L36.92 166.87L31.64 162.62L34.05 159.63L38.72 163.39L39.43 162.51L34.76 158.75L37.11 155.83L42.33 160.03L43.04 159.15L36.86 154.17L29.97 162.72ZM46.4 175.09L47.51 175.64L49.71 171.22L55.39 174.04L53.19 178.46L54.3 179.01L59.18 169.18L58.07 168.63L55.9 173L50.22 170.18L52.39 165.81L51.28 165.26L46.4 175.09ZM66.31 183.83L67.5 184.15L70.37 173.56L69.18 173.24L66.31 183.83ZM69.31 172.26L70.76 172.65L71.13 171.29L69.68 170.9L69.31 172.26ZM79.78 187.19L81.01 187.3L81.39 183.05L84.51 183.33L87.3 187.86L88.81 187.99L85.85 183.23C87.6 183.07 88.94 182.12 89.1 180.31V180.28C89.18 179.42 88.94 178.63 88.45 178.05C87.82 177.3 86.78 176.8 85.44 176.68L80.74 176.26L79.77 187.19H79.78ZM81.49 181.95L81.88 177.51L85.26 177.81C87.03 177.97 87.98 178.87 87.87 180.22V180.25C87.74 181.66 86.49 182.4 84.85 182.25L81.49 181.95ZM114.94 186.41L119.61 185.02C121.91 184.34 123.11 182.82 122.57 181.01V180.98C122.13 179.54 120.91 179.11 119.55 179.11C120.27 178.5 120.9 177.55 120.49 176.18V176.15C120.28 175.47 119.87 174.99 119.31 174.67C118.54 174.26 117.48 174.2 116.28 174.56L111.8 175.89L114.93 186.41H114.94ZM119.35 176.71C119.72 177.94 118.92 178.88 117.49 179.31L114.38 180.24L113.3 176.62L116.5 175.67C118 175.22 119.03 175.65 119.34 176.69V176.72L119.35 176.71ZM121.34 181.27V181.3C121.7 182.47 120.92 183.48 119.32 183.95L115.79 185L114.68 181.28L118 180.29C119.83 179.74 120.99 180.12 121.33 181.26L121.34 181.27ZM135.26 179.58L142.25 175.67L141.7 174.69L135.79 178L133.91 174.65L139.14 171.73L138.59 170.75L133.36 173.67L131.53 170.4L137.38 167.13L136.83 166.15L129.91 170.02L135.26 179.6V179.58ZM152.85 168.95L158.4 164.03L157.64 163.18L153.02 167.28L146.49 159.93L145.57 160.75L152.85 168.96V168.95ZM167.28 155.45L172 148.98L171.09 148.32L167.1 153.79L163.99 151.52L167.52 146.68L166.61 146.02L163.08 150.86L160.05 148.65L164 143.24L163.09 142.58L158.42 148.99L167.29 155.46L167.28 155.45ZM179 138.51L180.53 135.02C181.91 131.86 180.67 128.71 177.84 127.48H177.81C174.98 126.23 171.86 127.46 170.47 130.63L168.94 134.12L179 138.52V138.51ZM171.51 131.08C172.62 128.54 175.09 127.68 177.31 128.65H177.34C179.57 129.64 180.58 132.02 179.47 134.56L178.44 136.92L170.48 133.44L171.51 131.08ZM186.98 117.9L187.24 116.69L176.52 114.36L176.26 115.57L186.99 117.91L186.98 117.9ZM175.28 115.48L175.6 114.01L174.22 113.71L173.9 115.18L175.28 115.48ZM189.91 100.85L189.96 99.6L185.6 99.44L179.16 94.63L179.1 96.07L184.44 100.01L178.82 103.5L178.76 105.01L185.56 100.7L189.9 100.87L189.91 100.85ZM189.9 82.82L188.39 74.95L187.28 75.16L188.55 81.81L184.77 82.53L183.64 76.65L182.53 76.86L183.66 82.74L179.98 83.45L178.72 76.87L177.61 77.08L179.1 84.87L189.88 82.8L189.9 82.82ZM184.2 59.49C183.37 57.47 181.65 56.48 179.91 57.19H179.88C178.33 57.84 177.93 59.22 178.36 61.69C178.79 64.12 178.47 64.86 177.51 65.26H177.48C176.57 65.65 175.49 65.1 174.96 63.78C174.53 62.73 174.48 61.65 174.87 60.4L173.71 60.09C173.3 61.46 173.32 62.69 173.92 64.17C174.71 66.1 176.46 67.03 178.06 66.37H178.09C179.76 65.68 180.08 64.3 179.63 61.75C179.21 59.43 179.54 58.7 180.48 58.32H180.51C181.51 57.9 182.61 58.5 183.16 59.87C183.74 61.28 183.67 62.49 183.15 63.94L184.28 64.31C184.87 62.65 184.87 61.11 184.21 59.5L184.2 59.49ZM177.48 45.72L176.85 44.65L167.4 50.24L168.03 51.3L177.48 45.71V45.72ZM167.25 51.91L166.49 50.62L165.28 51.34L166.04 52.64L167.25 51.92V51.91Z" fill="white"/>
<path d="M45.53 28.57C47.44 27.17 48.06 25.21 46.78 23.45L46.76 23.42C45.63 21.87 44.15 21.97 42.01 22.81C40.19 23.54 39.67 23.62 39.25 23.04L39.23 23.01C38.92 22.58 39.06 21.95 39.81 21.4C40.56 20.85 41.57 20.62 42.75 20.59L42.69 18.38C41.26 18.31 39.87 18.71 38.58 19.66C36.77 20.98 36.25 22.99 37.42 24.6L37.44 24.62C38.72 26.38 40.24 26.04 42.36 25.19C44.12 24.49 44.61 24.52 44.97 25.01L44.99 25.04C45.37 25.56 45.12 26.23 44.32 26.81C43.31 27.55 42.16 27.74 40.89 27.66L40.74 29.88C42.5 30.05 44.19 29.53 45.54 28.55L45.53 28.57ZM54.82 21.44L57.08 20.45L57.01 17.79L61.26 15.93L63.17 17.78L65.48 16.77L56.74 8.53L54.7 9.42L54.82 21.43V21.44ZM56.94 15.5L56.85 11.65L59.61 14.33L56.94 15.5ZM73.34 13.83L75.71 13.38L75.08 10.08L76.08 8.55L80.3 12.5L83.15 11.95L77.37 6.62L80.88 1.21L78.01 1.76L74.54 7.31L73.64 2.6L71.27 3.05L73.33 13.83H73.34ZM89.99 10.87L92.45 10.96L93.55 8.54L98.19 8.72L99.1 11.22L101.62 11.32L97.33 0.08L95.11 0L89.99 10.87ZM94.49 6.44L96.08 2.94L97.4 6.55L94.49 6.44ZM110 12.09L112.31 12.78L113.31 9.41L115.13 9.95L116.38 13.99L119.08 14.79L117.63 10.27C119.11 10.17 120.35 9.38 120.85 7.68V7.65C121.16 6.66 121.09 5.74 120.67 4.98C120.18 4.08 119.26 3.4 117.92 3L113.11 1.57L109.98 12.09H110ZM113.92 7.37L114.82 4.35L117.12 5.03C118.25 5.37 118.79 6.08 118.49 7.08V7.11C118.22 8 117.39 8.41 116.26 8.07L113.91 7.37H113.92ZM129.53 18.89L131.67 20.02L133.71 16.15L140.52 12.28L138.09 11L133.68 13.65L133.42 8.53L130.92 7.21L131.55 15.06L129.53 18.89ZM140.14 24.83L142.06 26.37L144.39 25.08L148 27.99L147.24 30.54L149.21 32.12L152.48 20.56L150.75 19.16L140.15 24.82L140.14 24.83ZM146.39 23.97L149.76 22.11L148.66 25.8L146.39 23.97Z" fill="white"/>
</g>
<defs>
<clipPath id="clip0_2_121">
<rect width="189.95" height="188" fill="white"/>
</clipPath>
</defs>
</svg>
