<svg preserveAspectRatio="none" width="100%" height="100%" overflow="visible" style="display: block;" viewBox="0 0 28 22" fill="none" xmlns="http://www.w3.org/2000/svg">
<g id="Outline">
<path id="Vector" d="M22.75 0H5.25C2.35667 0 0 2.46889 0 5.5V16.5C0 19.5311 2.35667 22 5.25 22H22.75C25.6433 22 28 19.5311 28 16.5V5.5C28 2.46889 25.6433 0 22.75 0ZM1.16667 6.11111H26.8333V8.55556H1.16667V6.11111ZM5.25 1.22222H22.75C24.8033 1.22222 26.4833 2.82333 26.775 4.88889H1.225C1.51667 2.82333 3.19667 1.22222 5.25 1.22222ZM22.75 20.7778H5.25C2.99833 20.7778 1.16667 18.8589 1.16667 16.5V9.77778H26.8333V16.5C26.8333 18.8589 25.0017 20.7778 22.75 20.7778ZM5.83333 13.4444C4.55 13.4444 3.5 14.5444 3.5 15.8889C3.5 17.2333 4.55 18.3333 5.83333 18.3333C7.11667 18.3333 8.16667 17.2333 8.16667 15.8889C8.16667 14.5444 7.11667 13.4444 5.83333 13.4444ZM5.83333 17.1111C5.19167 17.1111 4.66667 16.5611 4.66667 15.8889C4.66667 15.2167 5.19167 14.6667 5.83333 14.6667C6.475 14.6667 7 15.2167 7 15.8889C7 16.5611 6.475 17.1111 5.83333 17.1111Z" fill="#64227E"/>
</g>
</svg>
