<svg preserveAspectRatio="none" width="100%" height="100%" overflow="visible" style="display: block;" viewBox="0 0 27 27" fill="none" xmlns="http://www.w3.org/2000/svg">
<g id="Saat 1" clip-path="url(#clip0_56_45)">
<path id="Vector" d="M13.5 27C6.05587 27 0 20.9441 0 13.5C0 6.05587 6.05587 0 13.5 0C20.9441 0 27 6.05587 27 13.5C27 20.9441 20.9441 27 13.5 27ZM13.5 2.25C7.29675 2.25 2.25 7.29675 2.25 13.5C2.25 19.7032 7.29675 24.75 13.5 24.75C19.7032 24.75 24.75 19.7032 24.75 13.5C24.75 7.29675 19.7032 2.25 13.5 2.25ZM16.3125 18.3712C16.8514 18.0607 17.0359 17.3722 16.7243 16.8345L14.625 13.1985V6.75C14.625 6.129 14.1221 5.625 13.5 5.625C12.8779 5.625 12.375 6.129 12.375 6.75V13.5C12.375 13.698 12.4267 13.8915 12.5257 14.0625L14.7757 17.9595C14.985 18.3206 15.3619 18.522 15.7511 18.522C15.9424 18.522 16.1359 18.4736 16.3125 18.3712Z" fill="#64227E"/>
</g>
<defs>
<clipPath id="clip0_56_45">
<rect width="27" height="27" fill="white"/>
</clipPath>
</defs>
</svg>
