<svg preserveAspectRatio="none" width="100%" height="100%" overflow="visible" style="display: block;" viewBox="0 0 27 27" fill="none" xmlns="http://www.w3.org/2000/svg">
<g id="Konum 1" clip-path="url(#clip0_56_52)">
<path id="Vector" d="M13.5 0.0236246C10.4978 0.0271979 7.61965 1.22147 5.49689 3.34444C3.37413 5.4674 2.18015 8.3457 2.17687 11.3479C2.17687 17.2811 11.3636 25.218 12.4144 26.1045L13.5022 27.0236L14.5901 26.1045C15.6386 25.218 24.8276 17.2811 24.8276 11.3479C24.8243 8.34492 23.6297 5.46594 21.506 3.34285C19.3823 1.21975 16.503 0.0260068 13.5 0.0236246ZM13.5 22.572C10.0519 19.431 5.54962 14.328 5.54962 11.3479C5.54962 9.2393 6.38725 7.21709 7.87824 5.72611C9.36922 4.23513 11.3914 3.3975 13.5 3.3975C15.6086 3.3975 17.6308 4.23513 19.1218 5.72611C20.6127 7.21709 21.4504 9.2393 21.4504 11.3479C21.4504 14.3224 16.947 19.4276 13.5 22.572Z" fill="#64227E"/>
<path id="Vector_2" d="M13.5 14.6239C15.3621 14.6239 16.8716 13.1143 16.8716 11.2523C16.8716 9.39015 15.3621 7.88063 13.5 7.88063C11.6379 7.88063 10.1284 9.39015 10.1284 11.2523C10.1284 13.1143 11.6379 14.6239 13.5 14.6239Z" fill="#64227E"/>
</g>
<defs>
<clipPath id="clip0_56_52">
<rect width="27" height="27" fill="white"/>
</clipPath>
</defs>
</svg>
