<svg preserveAspectRatio="none" width="100%" height="100%" overflow="visible" style="display: block;" viewBox="0 0 22 22" fill="none" xmlns="http://www.w3.org/2000/svg">
<g id="city 1" clip-path="url(#clip0_56_105)">
<path id="Vector" d="M12.8333 11.9167H14.6667V12.8333H12.8333V11.9167ZM16.5 12.8333H18.3333V11.9167H16.5V12.8333ZM12.8333 16.5H14.6667V15.5833H12.8333V16.5ZM16.5 16.5H18.3333V15.5833H16.5V16.5ZM12.8333 5.5H14.6667V4.58333H12.8333V5.5ZM16.5 5.5H18.3333V4.58333H16.5V5.5ZM12.8333 9.16667H14.6667V8.25H12.8333V9.16667ZM16.5 9.16667H18.3333V8.25H16.5V9.16667ZM22 2.29167V22H0V7.63492C0 7.02258 0.238333 6.44692 0.671 6.01425L3.15242 3.53283C4.147 2.53825 5.93542 2.53825 6.93 3.53283L9.16575 5.76858V2.29167C9.16575 1.0285 10.1942 0 11.4574 0H19.7074C20.9706 0 22 1.0285 22 2.29167ZM9.16667 7.63492C9.16667 7.26733 9.02367 6.92267 8.76425 6.66233L6.28283 4.18092C5.62925 3.52733 4.455 3.52733 3.80142 4.18092L1.31908 6.66233C1.05967 6.92267 0.916667 7.26733 0.916667 7.63492V21.0833H9.16667V7.63492ZM21.0833 2.29167C21.0833 1.53358 20.4664 0.916667 19.7083 0.916667H11.4583C10.7003 0.916667 10.0833 1.53358 10.0833 2.29167V21.0833H21.0833V2.29167ZM3.66667 12.8333H6.41667V11.9167H3.66667V12.8333ZM3.66667 9.16667H6.41667V8.25H3.66667V9.16667ZM3.66667 16.5H6.41667V15.5833H3.66667V16.5Z" fill="#64227E"/>
</g>
<defs>
<clipPath id="clip0_56_105">
<rect width="22" height="22" fill="white"/>
</clipPath>
</defs>
</svg>
