<svg preserveAspectRatio="none" width="100%" height="100%" overflow="visible" style="display: block;" viewBox="0 0 23 23" fill="none" xmlns="http://www.w3.org/2000/svg">
<g id="user 1">
<path id="Vector" d="M11.5057 11.7961C14.9663 11.776 16.8293 9.90725 16.8935 6.36142C16.8341 2.94975 14.8705 0.981333 11.4943 0.959292C8.08163 0.980375 6.1065 2.99287 6.1065 6.39496C6.1065 9.79704 8.08258 11.776 11.5057 11.7961Z" fill="#FFFFFF"/>
<path id="Vector_2" d="M11.4943 13.0918C6.38825 13.1244 3.64071 15.8815 3.54871 21.067C3.54487 21.3239 3.64358 21.5721 3.82375 21.7551C4.00392 21.9382 4.25021 22.0417 4.50704 22.0417H18.4939C18.7508 22.0417 18.997 21.9382 19.1772 21.7551C19.3574 21.5721 19.4561 21.3239 19.4523 21.067C19.3641 15.9562 16.5428 13.1244 11.4943 13.0918Z" fill="#FFFFFF"/>
</g>
</svg>
