<svg preserveAspectRatio="none" width="100%" height="100%" overflow="visible" style="display: block;" viewBox="0 0 28 22" fill="none" xmlns="http://www.w3.org/2000/svg">
<g id="Outline">
<path id="Vector" d="M22.75 0H5.25C2.35667 0 0 2.46889 0 5.5V16.5C0 19.5311 2.35667 22 5.25 22H22.75C25.6433 22 28 19.5311 28 16.5V5.5C28 2.46889 25.6433 0 22.75 0ZM1.16667 6.11111H26.8333V8.55556H1.16667V6.11111ZM5.25 1.22222H22.75C24.8033 1.22222 26.4833 2.82333 26.775 4.88889H1.225C1.51667 2.82333 3.19667 1.22222 5.25 1.22222ZM22.75 20.7778H5.25C2.99833 20.7778 1.16667 18.8589 1.16667 16.5V9.77778H26.8333V16.5C26.8333 18.8589 25.0017 20.7778 22.75 20.7778ZM5.83333 13.4444C4.55 13.4444 3.5 14.5444 3.5 15.8889C3.5 17.2333 4.55 18.3333 5.83333 18.3333C7.11667 18.3333 8.16667 17.2333 8.16667 15.8889C8.16667 14.5444 7.11667 13.4444 5.83333 13.4444ZM5.83333 17.1111C5.19167 17.1111 4.66667 16.5611 4.66667 15.8889C4.66667 15.2167 5.19167 14.6667 5.83333 14.6667C6.475 14.6667 7 15.2167 7 15.8889C7 16.5611 6.475 17.1111 5.83333 17.1111Z" fill="#64227E"/>
<path id="Vector_2" d="M18.8767 17.1111C19.04 17.4044 19.39 17.5022 19.67 17.3311L19.7517 17.2822C19.915 17.4289 20.1017 17.5389 20.3 17.6122V17.7222C20.3 18.0644 20.5567 18.3333 20.8833 18.3333C21.21 18.3333 21.4667 18.0644 21.4667 17.7222V17.6122C21.665 17.5389 21.8517 17.4289 22.015 17.2822L22.0967 17.3311C22.3767 17.5022 22.7383 17.4044 22.89 17.1111C23.0533 16.8178 22.96 16.4389 22.68 16.28L22.5983 16.2311C22.6333 16.0111 22.6333 15.7789 22.5983 15.5589L22.68 15.51C22.96 15.3389 23.0533 14.9722 22.89 14.6789C22.7267 14.3856 22.3767 14.2878 22.0967 14.4589L22.015 14.5078C21.8517 14.3611 21.665 14.2511 21.4667 14.1778V14.0678C21.4667 13.7256 21.21 13.4567 20.8833 13.4567C20.5567 13.4567 20.3 13.7256 20.3 14.0678V14.1778C20.1017 14.2511 19.915 14.3611 19.7517 14.5078L19.67 14.4589C19.39 14.2878 19.0283 14.3856 18.8767 14.6789C18.7133 14.9722 18.8067 15.3511 19.0867 15.51L19.1683 15.5589C19.1333 15.7789 19.1333 16.0111 19.1683 16.2311L19.0867 16.28C18.8067 16.4511 18.7133 16.8178 18.8767 17.1111ZM20.895 15.07C21.3267 15.07 21.6767 15.4367 21.6767 15.8889C21.6767 16.3411 21.3267 16.7078 20.895 16.7078C20.4633 16.7078 20.1133 16.3411 20.1133 15.8889C20.1133 15.4367 20.4633 15.07 20.895 15.07Z" fill="#64227E"/>
</g>
</svg>
